<svg viewBox="0 0 238.68 167.06" xmlns="http://www.w3.org/2000/svg">
    <g fill="#eee" transform="translate(-553.14 -87.2)">
        <path d="m553.14 193.22h4.33l3.08 11.6 3.26-11.6h4.33l3.26 11.6 3.08-11.6h4.33l-5 15.93h-4.46l-3.35-11.34-3.35 11.33h-4.46z"/>
        <path d="m583.21 193.22h4.33v15.93h-4.33z"/>
        <path d="m593.92 193.22h10.71c4.53 0 5.62 2.7 5.62 4.84 0 3.39-1.78 5.4-5.29 5.4h-6.72v5.69h-4.33v-15.93zm4.33 7.34h4.64c1.34 0 2.9 0 2.9-2.19s-1.27-2.25-2.5-2.25h-5v4.44z"/>
        <path d="m624.7 192.77c8.57 0 9.9 5.09 9.9 8.41s-1.34 8.41-9.9 8.41-9.9-5.09-9.9-8.41 1.34-8.41 9.9-8.41zm0 13.78c3.93 0 5.31-2.9 5.31-5.38s-1.38-5.38-5.31-5.38-5.31 2.9-5.31 5.38 1.39 5.39 5.31 5.39z"/>
        <path d="m593.19 218h.87l-2.62 7.79h-.94l-2.34-6.66-2.32 6.66h-.94l-2.61-7.79h.91l2.16 6.72 2.3-6.72h1l2.3 6.72z"/>
        <path d="m600.78 217.78a4.1 4.1 0 1 1 -4.23 4.09 3.94 3.94 0 0 1 4.23-4.09zm0 7.44a3.35 3.35 0 1 0 -3.36-3.35 3.14 3.14 0 0 0 3.36 3.35z"/>
        <path d="m608.47 218h4.25c1.32 0 2.53.47 2.53 2.11a1.91 1.91 0 0 1 -1.53 1.89c1.1.18 1.33.89 1.39 2.16a4.1 4.1 0 0 0 .27 1.61h-.87a3.55 3.55 0 0 1 -.21-1.59c0-1.38-.55-1.83-1.89-1.83h-3.13v3.43h-.81zm.81 3.62h3.42a1.43 1.43 0 0 0 1.68-1.52 1.34 1.34 0 0 0 -1.6-1.37h-3.5v2.88z"/>
        <path d="m618.61 218h.81v7h4.95v.74h-5.75v-7.74z"/>
        <path d="m627.27 218h3.79c2.27 0 3.45 1.45 3.45 3.9 0 2.19-1.14 3.9-3.33 3.9h-3.91zm.81 7.05h2.92c1.4 0 2.61-.76 2.61-3.16 0-2.06-.81-3.15-2.61-3.15h-2.95v6.26z"/>
        <path d="m583.21 232.12h1.64v7.79h-1.64z"/>
        <path d="m588.63 232.12h1.88l4.64 5.85v-5.85h1.57v7.79h-1.84l-4.67-5.85v5.85h-1.57v-7.79z"/>
        <path d="m602.65 233.34h-2.93v-1.22h7.49v1.22h-2.93v6.57h-1.64v-6.57z"/>
        <path d="m610.19 232.12h6.81v1.22h-5.13v2h4.92v1.22h-4.92v2.16h5.13v1.22h-6.85v-7.79z"/>
        <path d="m620.47 232.12h1.64v6.51h4.74v1.29h-6.37v-7.79z"/>
        <path d="m629.94 232.12h1.64v6.51h4.74v1.29h-6.37v-7.79z"/>
        <path d="m639.4 232.12h6.77v1.22h-5.17v2h5v1.22h-5v2.16h5.22v1.22h-6.82v-7.79z"/>
        <path d="m656.09 235a2.27 2.27 0 0 0 -2.51-1.88c-1.5 0-2.63 1-2.63 3a2.62 2.62 0 0 0 2.74 2.75 2.24 2.24 0 0 0 2.4-2h1.77c-.23 1.55-1.25 3.2-4.45 3.2a3.88 3.88 0 0 1 -4.16-4.11c0-2.2 1.29-4.12 4.36-4.12 2.68 0 4.08 1.42 4.26 3.1h-1.77z"/>
        <path d="m663.49 233.34h-2.92v-1.22h7.49v1.22h-2.93v6.57h-1.64z"/>
        <path d="m671 232.12h1.64v4.4c0 1.08 0 2.39 2.17 2.39s2.18-1.31 2.18-2.39v-4.4h1.64v4.44c0 1.29 0 3.57-3.82 3.57s-3.81-2.28-3.81-3.57z"/>
        <path d="m684.9 232.12h1.94l3.47 7.79h-1.82l-.82-1.91h-3.67l-.81 1.93h-1.77zm2.28 4.64-1.33-3.28-1.35 3.28h2.69z"/>
        <path d="m693.2 232.12h1.64v6.51h4.74v1.29h-6.38v-7.79z"/>
        <path d="m708.69 232.12h4.8a2.24 2.24 0 0 1 2.53 2.42 2.31 2.31 0 0 1 -2.51 2.4h-3.19v3h-1.64v-7.79zm1.64 3.6h2.67c.93 0 1.43-.25 1.43-1.18a1.14 1.14 0 0 0 -1.31-1.2h-2.75v2.38z"/>
        <path d="m719.37 232.12h4.93c2 0 2.63.91 2.63 2.12a1.84 1.84 0 0 1 -1.29 1.88c.93.19 1.14 1 1.14 2.1a3.29 3.29 0 0 0 .33 1.67h-1.77a2.67 2.67 0 0 1 -.2-1.18c0-1.11-.15-1.9-1.35-1.9h-2.79v3.08h-1.64v-7.79zm4.47 3.49c.9 0 1.4-.27 1.4-1.15a1.13 1.13 0 0 0 -1.4-1.12h-2.84v2.27h2.83z"/>
        <path d="m730 236c0-2.2 1.29-4.12 4.59-4.12s4.59 1.92 4.59 4.12-1.29 4.11-4.59 4.11-4.59-1.9-4.59-4.11zm7.47 0a2.88 2.88 0 1 0 -2.88 2.89 2.69 2.69 0 0 0 2.89-2.89z"/>
        <path d="m742.53 232.12h4.8a2.24 2.24 0 0 1 2.53 2.42 2.32 2.32 0 0 1 -2.51 2.4h-3.18v3h-1.64v-7.79zm1.64 3.6h2.63c.93 0 1.43-.25 1.43-1.18a1.13 1.13 0 0 0 -1.31-1.2h-2.75z"/>
        <path d="m753.21 232.12h6.79v1.22h-5.13v2h4.92v1.22h-4.92v2.16h5.21v1.22h-6.85v-7.79z"/>
        <path d="m763.49 232.12h4.93c2 0 2.63.91 2.63 2.12a1.84 1.84 0 0 1 -1.29 1.88c.93.19 1.13 1 1.13 2.1a3.29 3.29 0 0 0 .33 1.67h-1.77a2.64 2.64 0 0 1 -.2-1.18c0-1.11-.15-1.9-1.35-1.9h-2.78v3.08h-1.64v-7.79zm4.46 3.49c.9 0 1.4-.27 1.4-1.15a1.13 1.13 0 0 0 -1.4-1.12h-2.83v2.27h2.88z"/>
        <path d="m776.7 233.34h-2.92v-1.22h7.49v1.22h-2.93v6.57h-1.64z"/>
        <path d="m786.78 236.94-3.41-4.82h2l2.23 3.47 2.23-3.47h2l-3.4 4.82v3h-1.64v-3z"/>
        <path d="m586.69 246.07a4.1 4.1 0 1 1 -4.24 4.1 3.94 3.94 0 0 1 4.24-4.1zm0 7.45a3.35 3.35 0 1 0 -3.36-3.35 3.14 3.14 0 0 0 3.36 3.35z"/>
        <path d="m594.38 246.27h4.25c1.32 0 2.53.47 2.53 2.11a1.9 1.9 0 0 1 -1.53 1.89c1.1.18 1.33.89 1.39 2.16a4.17 4.17 0 0 0 .27 1.62h-.87a3.6 3.6 0 0 1 -.21-1.59c0-1.38-.55-1.83-1.89-1.83h-3.13v3.43h-.81zm.81 3.62h3.42a1.43 1.43 0 0 0 1.68-1.51 1.34 1.34 0 0 0 -1.61-1.36h-3.49v2.88z"/>
        <path d="m611.65 252.59a3.53 3.53 0 0 1 -3.24 1.67 3.77 3.77 0 0 1 -4.08-4.09 3.91 3.91 0 0 1 4.17-4.1c2.17 0 3.56 1.23 3.77 2.66h-.87a2.68 2.68 0 0 0 -2.89-1.92 3 3 0 0 0 -3.3 3.35c0 2.09 1.07 3.35 3.14 3.35a3 3 0 0 0 3.32-2.73h-2.86v-.78h3.6v4h-.62z"/>
        <path d="m621.26 251.69h-4.1l-1.06 2.37h-.87l3.54-7.79h.94l3.54 7.79h-.95zm-2-4.62-1.78 3.93h3.45z"/>
        <path d="m626.08 246.27h1l5.45 6.66v-6.66h.81v7.79h-.94l-5.48-6.66v6.66h-.81v-7.79z"/>
        <path d="m637 246.27h.81v7.79h-.81z"/>
        <path d="m640.9 253.32 5.78-6.31h-5.41v-.74h6.51v.73l-5.78 6.32h5.9v.74h-7z"/>
        <path d="m656.07 251.69h-4.07l-1.06 2.37h-.94l3.54-7.79h.94l3.54 7.79h-.94zm-2-4.62-1.77 3.93h3.45z"/>
        <path d="m662.6 247h-3.06v-.74h6.92v.74h-3.06v7h-.8z"/>
        <path d="m669.44 246.27h.81v7.79h-.81z"/>
        <path d="m677.89 246.07a4.1 4.1 0 1 1 -4.24 4.1 3.94 3.94 0 0 1 4.24-4.1zm0 7.45a3.35 3.35 0 1 0 -3.36-3.35 3.14 3.14 0 0 0 3.36 3.35z"/>
        <path d="m685.45 246.27h1l5.44 6.66v-6.66h.81v7.79h-.94l-5.48-6.66v6.66h-.81v-7.79z"/>
        <path d="m633.29 108.33a11.55 11.55 0 0 0 -.79-1 8.23 8.23 0 0 0 2.07-5.17 7.23 7.23 0 0 0 -1.21-3.9c-2.69-4.27-9.74-8-19.65-11v1.44c10.31 2.63 17.28 6 19.51 9.7a5.09 5.09 0 0 1 .78 2.6c0 1.74-1 3.42-2.74 5-3.49-3.27-9.56-6.18-17.54-8.62v1.44c8.07 2.05 14.08 4.54 17.38 7.32a30.53 30.53 0 0 1 -8.35 4.75 77.73 77.73 0 0 0 -9-3.34v1.45q4.35 1.11 7.86 2.38c-9 3.48-22.34 6.33-38.33 8.19v4.76a175.43 175.43 0 0 0 30.47-6.58v1.43q4.35 1.11 7.86 2.37c-9 3.48-22.33 6.33-38.33 8.19v4.76a175.44 175.44 0 0 0 30.47-6.58v1.43q4.35 1.11 7.86 2.38c-9 3.48-22.34 6.33-38.34 8.19v4.76a175.34 175.34 0 0 0 30.47-6.58v1.42q4.35 1.11 7.86 2.38c-9 3.48-22.33 6.33-38.33 8.19v4.77a175.42 175.42 0 0 0 30.47-6.58v1.42q4.35 1.11 7.86 2.38c-9 3.48-22.34 6.33-38.33 8.19v4.73c18.27-2.48 33.14-6.53 42.09-11.45a25.08 25.08 0 0 1 5.77 3.44c-6.68 5.85-24.43 10.7-47.86 13.42v4.76c24.63-3.34 43.1-9.53 49.18-16.88a8.06 8.06 0 0 1 .75 1 5.11 5.11 0 0 1 .8 2.71c0 8.12-20.71 15.11-50.75 18.6v4.77c30.34-4.12 51.34-12.55 51.34-22.18a7.29 7.29 0 0 0 -1.29-4 11.53 11.53 0 0 0 -.78-1 8.23 8.23 0 0 0 2.07-5.17 7.25 7.25 0 0 0 -1.28-4 11.37 11.37 0 0 0 -.78-1 8.23 8.23 0 0 0 2.07-5.17 7.26 7.26 0 0 0 -1.28-4 11.31 11.31 0 0 0 -.79-1 8.23 8.23 0 0 0 2.07-5.17 7.27 7.27 0 0 0 -1.28-4 11.63 11.63 0 0 0 -.79-1 8.23 8.23 0 0 0 2.07-5.17 7.28 7.28 0 0 0 -1.28-4 11.43 11.43 0 0 0 -.78-1 8.24 8.24 0 0 0 2.07-5.17 7.26 7.26 0 0 0 -1.32-4.01zm-19.56 9.39a69.13 69.13 0 0 0 11.58-4.86 25 25 0 0 1 5.77 3.44 30.5 30.5 0 0 1 -8.34 4.75 77.59 77.59 0 0 0 -9.01-3.33zm0 10.17a69.19 69.19 0 0 0 11.58-4.89 25 25 0 0 1 5.77 3.44 30.49 30.49 0 0 1 -8.34 4.75 77.47 77.47 0 0 0 -9.01-3.3zm0 10.17a69.29 69.29 0 0 0 11.58-4.86 25 25 0 0 1 5.77 3.44 30.54 30.54 0 0 1 -8.35 4.75 77.47 77.47 0 0 0 -9-3.32zm0 10.17a69.09 69.09 0 0 0 11.58-4.86 25 25 0 0 1 5.77 3.44 30.52 30.52 0 0 1 -8.35 4.75 77.6 77.6 0 0 0 -9-3.32zm19.43.88a5.1 5.1 0 0 1 .82 2.7c0 1.74-1 3.42-2.74 5a25.49 25.49 0 0 0 -5.24-3.68 23.45 23.45 0 0 0 6.41-5.05 8 8 0 0 1 .75 1.04zm0-10.16a5.1 5.1 0 0 1 .81 2.69c0 1.74-1 3.42-2.74 5a25.46 25.46 0 0 0 -5.23-3.64 23.43 23.43 0 0 0 6.41-5.05 8 8 0 0 1 .76 1.05zm0-10.18a5.12 5.12 0 0 1 .81 2.69c0 1.74-1 3.42-2.74 5a25.52 25.52 0 0 0 -5.24-3.68 23.42 23.42 0 0 0 6.41-5.05 8 8 0 0 1 .77 1.05zm0-10.17a5.09 5.09 0 0 1 .82 2.69c0 1.74-1 3.42-2.74 5a25.51 25.51 0 0 0 -5.24-3.68 23.43 23.43 0 0 0 6.41-5.05 8.08 8.08 0 0 1 .75 1.05zm-1.92-2.45a25.52 25.52 0 0 0 -5.24-3.68 23.49 23.49 0 0 0 6.41-5.05 8.06 8.06 0 0 1 .76 1 5.12 5.12 0 0 1 .81 2.68c.02 1.77-.98 3.45-2.74 5.06z"/>
    </g>
</svg>