<svg xmlns="http://www.w3.org/2000/svg" viewBox="0 0 108 120" preserveAspectRatio="xMinYMin slice">
    <path fill="#059"
          d="M101.6,91.5c-8.6-6.9-17.1-18.2-23.2-32c-7.4-16.6-9.8-33-7.5-44.8 C92.4,21.8,108,42.1,108,66C108,75.2,105.7,83.9,101.6,91.5z M99.6,94.9c-0.8,1.3-1.7,2.6-2.6,3.8C87.1,92.2,71.5,88,54,88 c-17.5,0-33.1,4.2-42.9,10.7c-0.9-1.2-1.8-2.5-2.6-3.8c12.3-6.2,25.3-21.4,34.2-41.5c8.5-19.3,11.2-38.5,8.2-51.8 C51.5,0.6,52.7,0,54,0s2.5,0.6,3.2,1.6c-3,13.3-0.4,32.5,8.2,51.8C74.2,73.5,87.3,88.7,99.6,94.9z M6.4,91.6C2.3,83.9,0,75.2,0,66 c0-24,15.6-44.2,37.2-51.3c2.3,11.7-0.1,28.2-7.5,44.8C23.5,73.4,15,84.6,6.4,91.6z M94.8,101.3C84.9,112.7,70.3,120,54,120 c-16.3,0-30.9-7.3-40.8-18.7C23.1,95.6,37.7,92,54,92C70.3,92,84.9,95.6,94.8,101.3z"/>
</svg>