<svg xmlns="http://www.w3.org/2000/svg" width="90" height="750" viewBox="0 0 90 750">

 <style type="text/css">
   .blue  {fill:#059; opacity="1"}
   .gray  {fill:#999; opacity="1"}
   .white {fill:#eee; opacity="1"}
 </style>

  <svg id="Pencil" width="40" height="40" viewBox="0 0 40 40" x="0" y="0">
    <path class="blue" d="M23.4,9.6l-9.1,9.1c-0.8,0.8-2.3,0.8-3,0c-0.8-0.8-0.8-2.3,0-3 l9.1-9.1c0.8-0.8,2.3-0.7,3,0C24.2,7.3,24.2,8.8,23.4,9.6z M6,24l2.3-5.9c0,0.9,0.4,1.8,1.1,2.5c0.7,0.7,1.6,1.1,2.5,1.1L6,24z"/>
  </svg>
  <svg id="Pencil-white" width="40" height="40" viewBox="0 0 40 40" x="30" y="0">
    <path class="white" d="M23.4,9.6l-9.1,9.1c-0.8,0.8-2.3,0.8-3,0c-0.8-0.8-0.8-2.3,0-3 l9.1-9.1c0.8-0.8,2.3-0.7,3,0C24.2,7.3,24.2,8.8,23.4,9.6z M6,24l2.3-5.9c0,0.9,0.4,1.8,1.1,2.5c0.7,0.7,1.6,1.1,2.5,1.1L6,24z"/>
  </svg>
  <svg id="Pencil-gray" width="40" height="40" viewBox="0 0 40 40" x="60" y="0">
    <path class="gray" d="M23.4,9.6l-9.1,9.1c-0.8,0.8-2.3,0.8-3,0c-0.8-0.8-0.8-2.3,0-3 l9.1-9.1c0.8-0.8,2.3-0.7,3,0C24.2,7.3,24.2,8.8,23.4,9.6z M6,24l2.3-5.9c0,0.9,0.4,1.8,1.1,2.5c0.7,0.7,1.6,1.1,2.5,1.1L6,24z"/>
  </svg>

  <svg id="Printer" width="30" height="30" viewBox="0 0 30 30" x="0" y="30">
    <path class="blue" d="M21,6H9v4h12 M22,15c-0.6,0-1-0.4-1-1s0.4-1,1-1s1,0.4,1,1S22.6,15,22,15 M19,22h-8v-5h8 M22,11H8c-1.7,0-3,1.3-3,3v6h4v4 h12v-4h4v-6C25,12.3,23.7,11,22,11z"/>
  </svg>
  <svg id="Printer-white" width="30" height="30" viewBox="0 0 30 30" x="30" y="30">
    <path class="white" d="M21,6H9v4h12 M22,15c-0.6,0-1-0.4-1-1s0.4-1,1-1s1,0.4,1,1S22.6,15,22,15 M19,22h-8v-5h8 M22,11H8c-1.7,0-3,1.3-3,3v6h4v4 h12v-4h4v-6C25,12.3,23.7,11,22,11z"/>
  </svg>
  <svg id="Printer-gray" width="30" height="30" viewBox="0 0 30 30" x="60" y="30">
    <path class="gray" d="M21,6H9v4h12 M22,15c-0.6,0-1-0.4-1-1s0.4-1,1-1s1,0.4,1,1S22.6,15,22,15 M19,22h-8v-5h8 M22,11H8c-1.7,0-3,1.3-3,3v6h4v4 h12v-4h4v-6C25,12.3,23.7,11,22,11z"/>
  </svg>


  <svg id="Plus" width="30" height="30" viewBox="0 0 30 30" x="0" y="60">
    <path class="blue" d="M23,15c0,0.6-0.4,1-1,1H8c-0.6,0-1-0.4-1-1l0,0c0-0.6,0.4-1,1-1 h14C22.6,14,23,14.4,23,15L23,15z M15,7c0.6,0,1,0.4,1,1v14c0,0.6-0.4,1-1,1l0,0c-0.6,0-1-0.4-1-1V8 C14,7.4,14.4,7,15,7L15,7z"/>
  </svg>
  <svg id="Plus-white" width="30" height="30" viewBox="0 0 30 30" x="30" y="60">
    <path class="white" d="M23,15c0,0.6-0.4,1-1,1H8c-0.6,0-1-0.4-1-1l0,0c0-0.6,0.4-1,1-1 h14C22.6,14,23,14.4,23,15L23,15z M15,7c0.6,0,1,0.4,1,1v14c0,0.6-0.4,1-1,1l0,0c-0.6,0-1-0.4-1-1V8 C14,7.4,14.4,7,15,7L15,7z"/>
  </svg>
  <svg id="Plus-gray" width="30" height="30" viewBox="0 0 30 30" x="60" y="60">
    <path class="gray" d="M23,15c0,0.6-0.4,1-1,1H8c-0.6,0-1-0.4-1-1l0,0c0-0.6,0.4-1,1-1 h14C22.6,14,23,14.4,23,15L23,15z M15,7c0.6,0,1,0.4,1,1v14c0,0.6-0.4,1-1,1l0,0c-0.6,0-1-0.4-1-1V8 C14,7.4,14.4,7,15,7L15,7z"/>
  </svg>


  <svg id="Cros" width="30" height="30" viewBox="0 0 30 30" x="0" y="90">
    <path class="blue" d="M20.7,9.3c0.4,0.4,0.4,1,0,1.4l-9.9,9.9c-0.4,0.4-1,0.4-1.4,0 l0,0c-0.4-0.4-0.4-1,0-1.4l9.9-9.9C19.6,9,20.3,9,20.7,9.3L20.7,9.3z M9.3,9.3c0.4-0.4,1-0.4,1.4,0l9.9,9.9c0.4,0.4,0.4,1,0,1.4l0,0 c-0.4,0.4-1,0.4-1.4,0l-9.9-9.9C9,10.4,9,9.7,9.3,9.3L9.3,9.3z"/>
  </svg>
  <svg id="Cros-white" width="30" height="30" viewBox="0 0 30 30" x="30" y="90">
    <path class="white" d="M20.7,9.3c0.4,0.4,0.4,1,0,1.4l-9.9,9.9c-0.4,0.4-1,0.4-1.4,0 l0,0c-0.4-0.4-0.4-1,0-1.4l9.9-9.9C19.6,9,20.3,9,20.7,9.3L20.7,9.3z M9.3,9.3c0.4-0.4,1-0.4,1.4,0l9.9,9.9c0.4,0.4,0.4,1,0,1.4l0,0 c-0.4,0.4-1,0.4-1.4,0l-9.9-9.9C9,10.4,9,9.7,9.3,9.3L9.3,9.3z"/>
  </svg>
  <svg id="Cros-gray" width="30" height="30" viewBox="0 0 30 30" x="60" y="90">
    <path class="gray" d="M20.7,9.3c0.4,0.4,0.4,1,0,1.4l-9.9,9.9c-0.4,0.4-1,0.4-1.4,0 l0,0c-0.4-0.4-0.4-1,0-1.4l9.9-9.9C19.6,9,20.3,9,20.7,9.3L20.7,9.3z M9.3,9.3c0.4-0.4,1-0.4,1.4,0l9.9,9.9c0.4,0.4,0.4,1,0,1.4l0,0 c-0.4,0.4-1,0.4-1.4,0l-9.9-9.9C9,10.4,9,9.7,9.3,9.3L9.3,9.3z"/>
  </svg>


  <svg id="Arrow_Down" width="30" height="30" viewBox="0 0 30 30" x="0" y="120">
    <path class="blue" d="M22.7,10.3c0.4,0.4,0.3,1.1-0.1,1.5l-7,7.9c-0.4,0.4-1,0.5-1.3,0.1l0,0c-0.4-0.4-0.3-1.1,0.1-1.5l7-7.9 C21.8,9.9,22.4,9.9,22.7,10.3L22.7,10.3z M7.3,10.3c0.4-0.4,1-0.4,1.3,0.1l7,7.9c0.4,0.4,0.4,1.1,0.1,1.5l0,0c-0.4,0.4-1,0.4-1.3-0.1l-7-7.9 C6.9,11.4,6.9,10.7,7.3,10.3L7.3,10.3z"/>
  </svg>
  <svg id="Arrow_Down-white" width="30" height="30" viewBox="0 0 30 30" x="30" y="120">
    <path class="white" d="M22.7,10.3c0.4,0.4,0.3,1.1-0.1,1.5l-7,7.9c-0.4,0.4-1,0.5-1.3,0.1l0,0c-0.4-0.4-0.3-1.1,0.1-1.5l7-7.9 C21.8,9.9,22.4,9.9,22.7,10.3L22.7,10.3z M7.3,10.3c0.4-0.4,1-0.4,1.3,0.1l7,7.9c0.4,0.4,0.4,1.1,0.1,1.5l0,0c-0.4,0.4-1,0.4-1.3-0.1l-7-7.9 C6.9,11.4,6.9,10.7,7.3,10.3L7.3,10.3z"/>
  </svg>
  <svg id="Arrow_Down-gray" width="30" height="30" viewBox="0 0 30 30" x="60" y="120">
    <path class="gray" d="M22.7,10.3c0.4,0.4,0.3,1.1-0.1,1.5l-7,7.9c-0.4,0.4-1,0.5-1.3,0.1l0,0c-0.4-0.4-0.3-1.1,0.1-1.5l7-7.9 C21.8,9.9,22.4,9.9,22.7,10.3L22.7,10.3z M7.3,10.3c0.4-0.4,1-0.4,1.3,0.1l7,7.9c0.4,0.4,0.4,1.1,0.1,1.5l0,0c-0.4,0.4-1,0.4-1.3-0.1l-7-7.9 C6.9,11.4,6.9,10.7,7.3,10.3L7.3,10.3z"/>
  </svg>


  <svg id="Arrow_Up" width="30" height="30" viewBox="0 0 30 30" x="0" y="150">
    <path class="blue" d="M7.3,19.7c-0.4-0.4-0.3-1.1,0.1-1.5l7-7.9c0.4-0.4,1-0.5,1.3-0.1l0,0c0.4,0.4,0.3,1.1-0.1,1.5l-7,7.9 C8.2,20.1,7.6,20.1,7.3,19.7L7.3,19.7z M22.7,19.7c-0.4,0.4-1,0.4-1.3-0.1l-7-7.9c-0.4-0.4-0.4-1.1-0.1-1.5l0,0c0.4-0.4,1-0.4,1.3,0.1l7,7.9 C23.1,18.6,23.1,19.3,22.7,19.7L22.7,19.7z"/>
  </svg>
  <svg id="Arrow_Up-white" width="30" height="30" viewBox="0 0 30 30" x="30" y="150">
    <path class="white" d="M7.3,19.7c-0.4-0.4-0.3-1.1,0.1-1.5l7-7.9c0.4-0.4,1-0.5,1.3-0.1l0,0c0.4,0.4,0.3,1.1-0.1,1.5l-7,7.9 C8.2,20.1,7.6,20.1,7.3,19.7L7.3,19.7z M22.7,19.7c-0.4,0.4-1,0.4-1.3-0.1l-7-7.9c-0.4-0.4-0.4-1.1-0.1-1.5l0,0c0.4-0.4,1-0.4,1.3,0.1l7,7.9 C23.1,18.6,23.1,19.3,22.7,19.7L22.7,19.7z"/>
  </svg>
  <svg id="Arrow_Up-gray" width="30" height="30" viewBox="0 0 30 30" x="60" y="150">
    <path class="gray" d="M7.3,19.7c-0.4-0.4-0.3-1.1,0.1-1.5l7-7.9c0.4-0.4,1-0.5,1.3-0.1l0,0c0.4,0.4,0.3,1.1-0.1,1.5l-7,7.9 C8.2,20.1,7.6,20.1,7.3,19.7L7.3,19.7z M22.7,19.7c-0.4,0.4-1,0.4-1.3-0.1l-7-7.9c-0.4-0.4-0.4-1.1-0.1-1.5l0,0c0.4-0.4,1-0.4,1.3,0.1l7,7.9 C23.1,18.6,23.1,19.3,22.7,19.7L22.7,19.7z"/>
  </svg>


  <svg id="Arrow_Left" width="30" height="30" viewBox="0 0 30 30" x="0" y="180">
    <path class="blue" d="M19.7,22.7c-0.4,0.4-1.1,0.3-1.5-0.1l-7.9-7c-0.4-0.4-0.5-1-0.1-1.3l0,0c0.4-0.4,1.1-0.3,1.5,0.1l7.9,7 C20.1,21.8,20.1,22.4,19.7,22.7L19.7,22.7z M19.7,7.3c0.4,0.4,0.4,1-0.1,1.3l-7.9,7c-0.4,0.4-1.1,0.4-1.5,0.1l0,0c-0.4-0.4-0.4-1,0.1-1.3l7.9-7 C18.6,6.9,19.3,6.9,19.7,7.3L19.7,7.3z"/>
  </svg>
  <svg id="Arrow_Left-white" width="30" height="30" viewBox="0 0 30 30" x="30" y="180">
    <path class="white" d="M19.7,22.7c-0.4,0.4-1.1,0.3-1.5-0.1l-7.9-7c-0.4-0.4-0.5-1-0.1-1.3l0,0c0.4-0.4,1.1-0.3,1.5,0.1l7.9,7 C20.1,21.8,20.1,22.4,19.7,22.7L19.7,22.7z M19.7,7.3c0.4,0.4,0.4,1-0.1,1.3l-7.9,7c-0.4,0.4-1.1,0.4-1.5,0.1l0,0c-0.4-0.4-0.4-1,0.1-1.3l7.9-7 C18.6,6.9,19.3,6.9,19.7,7.3L19.7,7.3z"/>
  </svg>
  <svg id="Arrow_Left-gray" width="30" height="30" viewBox="0 0 30 30" x="60" y="180">
    <path class="gray" d="M19.7,22.7c-0.4,0.4-1.1,0.3-1.5-0.1l-7.9-7c-0.4-0.4-0.5-1-0.1-1.3l0,0c0.4-0.4,1.1-0.3,1.5,0.1l7.9,7 C20.1,21.8,20.1,22.4,19.7,22.7L19.7,22.7z M19.7,7.3c0.4,0.4,0.4,1-0.1,1.3l-7.9,7c-0.4,0.4-1.1,0.4-1.5,0.1l0,0c-0.4-0.4-0.4-1,0.1-1.3l7.9-7 C18.6,6.9,19.3,6.9,19.7,7.3L19.7,7.3z"/>
  </svg>


  <svg id="Arrow_Right" width="30" height="30" viewBox="0 0 30 30" x="0" y="210">
    <path class="blue" d="M10.3,7.3c0.4-0.4,1.1-0.3,1.5,0.1l7.9,7c0.4,0.4,0.5,1,0.1,1.3l0,0c-0.4,0.4-1.1,0.3-1.5-0.1l-7.9-7 C9.9,8.2,9.9,7.6,10.3,7.3L10.3,7.3z M10.3,22.7c-0.4-0.4-0.4-1,0.1-1.3l7.9-7c0.4-0.4,1.1-0.4,1.5-0.1l0,0c0.4,0.4,0.4,1-0.1,1.3l-7.9,7 C11.4,23.1,10.7,23.1,10.3,22.7L10.3,22.7z"/>
  </svg>
  <svg id="Arrow_Right-white" width="30" height="30" viewBox="0 0 30 30" x="30" y="210">
    <path class="white" d="M10.3,7.3c0.4-0.4,1.1-0.3,1.5,0.1l7.9,7c0.4,0.4,0.5,1,0.1,1.3l0,0c-0.4,0.4-1.1,0.3-1.5-0.1l-7.9-7 C9.9,8.2,9.9,7.6,10.3,7.3L10.3,7.3z M10.3,22.7c-0.4-0.4-0.4-1,0.1-1.3l7.9-7c0.4-0.4,1.1-0.4,1.5-0.1l0,0c0.4,0.4,0.4,1-0.1,1.3l-7.9,7 C11.4,23.1,10.7,23.1,10.3,22.7L10.3,22.7z"/>
  </svg>
  <svg id="Arrow_Right-gray" width="30" height="30" viewBox="0 0 30 30" x="60" y="210">
    <path class="gray" d="M10.3,7.3c0.4-0.4,1.1-0.3,1.5,0.1l7.9,7c0.4,0.4,0.5,1,0.1,1.3l0,0c-0.4,0.4-1.1,0.3-1.5-0.1l-7.9-7 C9.9,8.2,9.9,7.6,10.3,7.3L10.3,7.3z M10.3,22.7c-0.4-0.4-0.4-1,0.1-1.3l7.9-7c0.4-0.4,1.1-0.4,1.5-0.1l0,0c0.4,0.4,0.4,1-0.1,1.3l-7.9,7 C11.4,23.1,10.7,23.1,10.3,22.7L10.3,22.7z"/>
  </svg>


  <svg id="CheckMark" width="30" height="30" viewBox="0 0 30 30" x="0" y="240">
    <path class="blue" d="M22.8,8.6c0,0,0.1-0.1,0.1-0.1l0,0l0,0C23,8.3,23,8.2,23,8c0-0.6-0.4-1-1-1c-0.3,0-0.6,0.2-0.8,0.4l0,0 L13,18.6l-4-3.7c-0.1-0.1-0.1-0.1-0.2-0.2l0,0h0c-0.2-0.1-0.4-0.2-0.6-0.2c-0.6,0-1.1,0.5-1.1,1.2c0,0.3,0.1,0.6,0.3,0.8l0,0 l5.1,5.9c0.2,0.3,0.5,0.5,0.9,0.5s0.7-0.2,0.9-0.5h0l0,0c0,0,0-0.1,0.1-0.1L22.8,8.6z"/>
  </svg>
  <svg id="CheckMark-white" width="30" height="30" viewBox="0 0 30 30" x="30" y="240">
    <path class="white" d="M22.8,8.6c0,0,0.1-0.1,0.1-0.1l0,0l0,0C23,8.3,23,8.2,23,8c0-0.6-0.4-1-1-1c-0.3,0-0.6,0.2-0.8,0.4l0,0 L13,18.6l-4-3.7c-0.1-0.1-0.1-0.1-0.2-0.2l0,0h0c-0.2-0.1-0.4-0.2-0.6-0.2c-0.6,0-1.1,0.5-1.1,1.2c0,0.3,0.1,0.6,0.3,0.8l0,0 l5.1,5.9c0.2,0.3,0.5,0.5,0.9,0.5s0.7-0.2,0.9-0.5h0l0,0c0,0,0-0.1,0.1-0.1L22.8,8.6z"/>
  </svg>
  <svg id="CheckMark-gray" width="30" height="30" viewBox="0 0 30 30" x="60" y="240">
    <path class="gray" d="M22.8,8.6c0,0,0.1-0.1,0.1-0.1l0,0l0,0C23,8.3,23,8.2,23,8c0-0.6-0.4-1-1-1c-0.3,0-0.6,0.2-0.8,0.4l0,0 L13,18.6l-4-3.7c-0.1-0.1-0.1-0.1-0.2-0.2l0,0h0c-0.2-0.1-0.4-0.2-0.6-0.2c-0.6,0-1.1,0.5-1.1,1.2c0,0.3,0.1,0.6,0.3,0.8l0,0 l5.1,5.9c0.2,0.3,0.5,0.5,0.9,0.5s0.7-0.2,0.9-0.5h0l0,0c0,0,0-0.1,0.1-0.1L22.8,8.6z"/>
  </svg>


  <svg id="Eye" width="30" height="30" viewBox="0 0 30 30" x="0" y="270">
    <path class="blue" d="M23.6,15c-1.1-1.5-2.5-2.8-4.3-3.7c0.4,0.7,0.7,1.5,0.7,2.3c0,2.6-2.2,4.7-5,4.7c-2.8,0-5-2.1-5-4.7c0-0.8,0.2-1.6,0.7-2.3 c-1.7,0.8-3.2,2.1-4.3,3.7c1.9,2.8,5,4.7,8.6,4.7C18.6,19.7,21.7,17.8,23.6,15L23.6,15z M15.5,11c0-0.3-0.2-0.5-0.5-0.5 c-1.9,0-3.4,1.4-3.4,3.2c0,0.3,0.2,0.5,0.5,0.5s0.5-0.2,0.5-0.5c0-1.2,1-2.2,2.3-2.2C15.3,11.5,15.5,11.3,15.5,11L15.5,11z M25,15 c0,0.3-0.1,0.5-0.2,0.7C22.7,18.9,19,21,15,21s-7.7-2.1-9.8-5.3C5.1,15.5,5,15.3,5,15c0-0.3,0.1-0.5,0.2-0.7C7.3,11.1,11,9,15,9 s7.7,2.1,9.8,5.3C24.9,14.5,25,14.7,25,15z"/>
  </svg>
  <svg id="Eye-white" width="30" height="30" viewBox="0 0 30 30" x="30" y="270">
    <path class="white" d="M23.6,15c-1.1-1.5-2.5-2.8-4.3-3.7c0.4,0.7,0.7,1.5,0.7,2.3c0,2.6-2.2,4.7-5,4.7c-2.8,0-5-2.1-5-4.7c0-0.8,0.2-1.6,0.7-2.3 c-1.7,0.8-3.2,2.1-4.3,3.7c1.9,2.8,5,4.7,8.6,4.7C18.6,19.7,21.7,17.8,23.6,15L23.6,15z M15.5,11c0-0.3-0.2-0.5-0.5-0.5 c-1.9,0-3.4,1.4-3.4,3.2c0,0.3,0.2,0.5,0.5,0.5s0.5-0.2,0.5-0.5c0-1.2,1-2.2,2.3-2.2C15.3,11.5,15.5,11.3,15.5,11L15.5,11z M25,15 c0,0.3-0.1,0.5-0.2,0.7C22.7,18.9,19,21,15,21s-7.7-2.1-9.8-5.3C5.1,15.5,5,15.3,5,15c0-0.3,0.1-0.5,0.2-0.7C7.3,11.1,11,9,15,9 s7.7,2.1,9.8,5.3C24.9,14.5,25,14.7,25,15z"/>
  </svg>
  <svg id="Eye-gray" width="30" height="30" viewBox="0 0 30 30" x="60" y="270">
    <path class="gray" d="M23.6,15c-1.1-1.5-2.5-2.8-4.3-3.7c0.4,0.7,0.7,1.5,0.7,2.3c0,2.6-2.2,4.7-5,4.7c-2.8,0-5-2.1-5-4.7c0-0.8,0.2-1.6,0.7-2.3 c-1.7,0.8-3.2,2.1-4.3,3.7c1.9,2.8,5,4.7,8.6,4.7C18.6,19.7,21.7,17.8,23.6,15L23.6,15z M15.5,11c0-0.3-0.2-0.5-0.5-0.5 c-1.9,0-3.4,1.4-3.4,3.2c0,0.3,0.2,0.5,0.5,0.5s0.5-0.2,0.5-0.5c0-1.2,1-2.2,2.3-2.2C15.3,11.5,15.5,11.3,15.5,11L15.5,11z M25,15 c0,0.3-0.1,0.5-0.2,0.7C22.7,18.9,19,21,15,21s-7.7-2.1-9.8-5.3C5.1,15.5,5,15.3,5,15c0-0.3,0.1-0.5,0.2-0.7C7.3,11.1,11,9,15,9 s7.7,2.1,9.8,5.3C24.9,14.5,25,14.7,25,15z"/>
  </svg>


  <svg id="Download" width="30" height="30" viewBox="0 0 30 30" x="0" y="300">
    <path class="blue" d="M24,11h-6V4h-7v7H5l9.5,10L24,11z M5,25h19v-2H5V25z"/>
  </svg>
  <svg id="Download-white" width="30" height="30" viewBox="0 0 30 30" x="30" y="300">
    <path class="white" d="M24,11h-6V4h-7v7H5l9.5,10L24,11z M5,25h19v-2H5V25z"/>
  </svg>
  <svg id="Download-gray" width="30" height="30" viewBox="0 0 30 30" x="60" y="300">
    <path class="gray" d="M24,11h-6V4h-7v7H5l9.5,10L24,11z M5,25h19v-2H5V25z"/>
  </svg>


  <svg id="Trash" width="30" height="30" viewBox="0 0 30 30" x="0" y="330">
    <path class="blue" d="M23.1,7.5h-4.3V6.9c0-1-0.8-1.9-1.9-1.9h-3.8c-1,0-1.9,0.8-1.9,1.9v0.6H6.9C5.8,7.5,5,8.3,5,9.4v0.8c0,1,0.8,1.9,1.9,1.9 h0.7l1.4,11.3c0.1,0.9,0.9,1.7,1.8,1.7h8.4c0.9,0,1.8-0.7,1.9-1.7l1.4-11.3h0.7c1,0,1.9-0.8,1.9-1.9V9.4C25,8.3,24.2,7.5,23.1,7.5z M12.5,6.9c0-0.3,0.3-0.6,0.6-0.6h3.8c0.3,0,0.6,0.3,0.6,0.6v0.6h-5.1V6.9z M19.8,23.2c0,0.3-0.3,0.6-0.6,0.6h-8.4 c-0.3,0-0.6-0.3-0.6-0.6L8.8,12.1h12.3L19.8,23.2z M23.8,10.2c0,0.3-0.3,0.6-0.6,0.6H6.9c-0.3,0-0.6-0.3-0.6-0.6V9.4 c0-0.3,0.3-0.6,0.6-0.6h16.3c0.3,0,0.6,0.3,0.6,0.6V10.2z M18,14.6l-0.5,6.9c0,0.3-0.3,0.6-0.6,0.6h0c-0.3,0-0.6-0.3-0.6-0.7l0.5-6.9c0-0.3,0.3-0.6,0.7-0.6S18,14.2,18,14.6z M13.8,21.3c0,0.3-0.3,0.7-0.6,0.7h0c-0.3,0-0.6-0.3-0.6-0.6l-0.5-6.9c0-0.3,0.3-0.7,0.6-0.7c0.3,0,0.7,0.2,0.7,0.6 L13.8,21.3z"/>
  </svg>
  <svg id="Trash-white" width="30" height="30" viewBox="0 0 30 30" x="30" y="330">
    <path class="white" d="M23.1,7.5h-4.3V6.9c0-1-0.8-1.9-1.9-1.9h-3.8c-1,0-1.9,0.8-1.9,1.9v0.6H6.9C5.8,7.5,5,8.3,5,9.4v0.8c0,1,0.8,1.9,1.9,1.9 h0.7l1.4,11.3c0.1,0.9,0.9,1.7,1.8,1.7h8.4c0.9,0,1.8-0.7,1.9-1.7l1.4-11.3h0.7c1,0,1.9-0.8,1.9-1.9V9.4C25,8.3,24.2,7.5,23.1,7.5z M12.5,6.9c0-0.3,0.3-0.6,0.6-0.6h3.8c0.3,0,0.6,0.3,0.6,0.6v0.6h-5.1V6.9z M19.8,23.2c0,0.3-0.3,0.6-0.6,0.6h-8.4 c-0.3,0-0.6-0.3-0.6-0.6L8.8,12.1h12.3L19.8,23.2z M23.8,10.2c0,0.3-0.3,0.6-0.6,0.6H6.9c-0.3,0-0.6-0.3-0.6-0.6V9.4 c0-0.3,0.3-0.6,0.6-0.6h16.3c0.3,0,0.6,0.3,0.6,0.6V10.2z M18,14.6l-0.5,6.9c0,0.3-0.3,0.6-0.6,0.6h0c-0.3,0-0.6-0.3-0.6-0.7l0.5-6.9c0-0.3,0.3-0.6,0.7-0.6S18,14.2,18,14.6z M13.8,21.3c0,0.3-0.3,0.7-0.6,0.7h0c-0.3,0-0.6-0.3-0.6-0.6l-0.5-6.9c0-0.3,0.3-0.7,0.6-0.7c0.3,0,0.7,0.2,0.7,0.6 L13.8,21.3z"/>
  </svg>
  <svg id="Trash-gray" width="30" height="30" viewBox="0 0 30 30" x="60" y="330">
    <path class="gray" d="M23.1,7.5h-4.3V6.9c0-1-0.8-1.9-1.9-1.9h-3.8c-1,0-1.9,0.8-1.9,1.9v0.6H6.9C5.8,7.5,5,8.3,5,9.4v0.8c0,1,0.8,1.9,1.9,1.9 h0.7l1.4,11.3c0.1,0.9,0.9,1.7,1.8,1.7h8.4c0.9,0,1.8-0.7,1.9-1.7l1.4-11.3h0.7c1,0,1.9-0.8,1.9-1.9V9.4C25,8.3,24.2,7.5,23.1,7.5z M12.5,6.9c0-0.3,0.3-0.6,0.6-0.6h3.8c0.3,0,0.6,0.3,0.6,0.6v0.6h-5.1V6.9z M19.8,23.2c0,0.3-0.3,0.6-0.6,0.6h-8.4 c-0.3,0-0.6-0.3-0.6-0.6L8.8,12.1h12.3L19.8,23.2z M23.8,10.2c0,0.3-0.3,0.6-0.6,0.6H6.9c-0.3,0-0.6-0.3-0.6-0.6V9.4 c0-0.3,0.3-0.6,0.6-0.6h16.3c0.3,0,0.6,0.3,0.6,0.6V10.2z M18,14.6l-0.5,6.9c0,0.3-0.3,0.6-0.6,0.6h0c-0.3,0-0.6-0.3-0.6-0.7l0.5-6.9c0-0.3,0.3-0.6,0.7-0.6S18,14.2,18,14.6z M13.8,21.3c0,0.3-0.3,0.7-0.6,0.7h0c-0.3,0-0.6-0.3-0.6-0.6l-0.5-6.9c0-0.3,0.3-0.7,0.6-0.7c0.3,0,0.7,0.2,0.7,0.6 L13.8,21.3z"/>
  </svg>


  <svg id="PaperClip" width="30" height="30" viewBox="0 0 30 30" x="0" y="360">
    <path class="blue" d="M19.4,9v11.5c0,2.2-2,4-4.4,4c-2.4,0-4.4-1.8-4.4-4V8c0-1.4,1.2-2.5,2.7-2.5s2.7,1.1,2.7,2.5v10.5c0,0.6-0.5,1-1.1,1 s-1.1-0.4-1.1-1V9h-1.6v9.5c0,1.4,1.2,2.5,2.7,2.5c1.5,0,2.7-1.1,2.7-2.5V8c0-2.2-2-4-4.4-4C11,4,9,5.8,9,8v12.5c0,3,2.7,5.5,6,5.5 c3.3,0,6-2.5,6-5.5V9H19.4z"/>
  </svg>
  <svg id="PaperClip-white" width="30" height="30" viewBox="0 0 30 30" x="30" y="360">
    <path class="white" d="M19.4,9v11.5c0,2.2-2,4-4.4,4c-2.4,0-4.4-1.8-4.4-4V8c0-1.4,1.2-2.5,2.7-2.5s2.7,1.1,2.7,2.5v10.5c0,0.6-0.5,1-1.1,1 s-1.1-0.4-1.1-1V9h-1.6v9.5c0,1.4,1.2,2.5,2.7,2.5c1.5,0,2.7-1.1,2.7-2.5V8c0-2.2-2-4-4.4-4C11,4,9,5.8,9,8v12.5c0,3,2.7,5.5,6,5.5 c3.3,0,6-2.5,6-5.5V9H19.4z"/>
  </svg>
  <svg id="PaperClip-gray" width="30" height="30" viewBox="0 0 30 30" x="60" y="360">
    <path class="gray" d="M19.4,9v11.5c0,2.2-2,4-4.4,4c-2.4,0-4.4-1.8-4.4-4V8c0-1.4,1.2-2.5,2.7-2.5s2.7,1.1,2.7,2.5v10.5c0,0.6-0.5,1-1.1,1 s-1.1-0.4-1.1-1V9h-1.6v9.5c0,1.4,1.2,2.5,2.7,2.5c1.5,0,2.7-1.1,2.7-2.5V8c0-2.2-2-4-4.4-4C11,4,9,5.8,9,8v12.5c0,3,2.7,5.5,6,5.5 c3.3,0,6-2.5,6-5.5V9H19.4z"/>
  </svg>


  <svg id="Back" width="30" height="30" viewBox="0 0 30 30" x="0" y="390">
    <path class="blue" d="M24,14H9.8l3.6-3.6L12,9l-6,6l6,6l1.4-1.4L9.8,16H24V14z"/>
    <rect class="blue" x="22" y="14" width="2" height="5"/>
  </svg>
  <svg id="Back-white" width="30" height="30" viewBox="0 0 30 30" x="30" y="390">
    <path class="white" d="M24,14H9.8l3.6-3.6L12,9l-6,6l6,6l1.4-1.4L9.8,16H24V14z"/>
    <rect class="white" x="22" y="14" width="2" height="5"/>
  </svg>
  <svg id="Back-gray" width="30" height="30" viewBox="0 0 30 30" x="60" y="390">
    <path class="gray" d="M24,14H9.8l3.6-3.6L12,9l-6,6l6,6l1.4-1.4L9.8,16H24V14z"/>
    <rect class="gray" x="22" y="14" width="2" height="5"/>
  </svg>


  <svg id="Reload" width="30" height="30" viewBox="0 0 30 30" x="0" y="420">
    <path class="blue" d="M15,9v3l4-4l-4-4v3c-4.4,0-8,3.6-8,8c0,1.6,0.5,3,1.2,4.3l1.5-1.5C9.3,17,9,16,9,15C9,11.7,11.7,9,15,9 M21.8,10.7 l-1.5,1.5C20.7,13,21,14,21,15c0,3.3-2.7,6-6,6v-3l-4,4l4,4v-3c4.4,0,8-3.6,8-8C23,13.4,22.5,12,21.8,10.7z"/>
  </svg>
  <svg id="Reload-white" width="30" height="30" viewBox="0 0 30 30" x="30" y="420">
    <path class="white" d="M15,9v3l4-4l-4-4v3c-4.4,0-8,3.6-8,8c0,1.6,0.5,3,1.2,4.3l1.5-1.5C9.3,17,9,16,9,15C9,11.7,11.7,9,15,9 M21.8,10.7 l-1.5,1.5C20.7,13,21,14,21,15c0,3.3-2.7,6-6,6v-3l-4,4l4,4v-3c4.4,0,8-3.6,8-8C23,13.4,22.5,12,21.8,10.7z"/>
  </svg>
  <svg id="Reload-gray" width="30" height="30" viewBox="0 0 30 30" x="60" y="420">
    <path class="gray" d="M15,9v3l4-4l-4-4v3c-4.4,0-8,3.6-8,8c0,1.6,0.5,3,1.2,4.3l1.5-1.5C9.3,17,9,16,9,15C9,11.7,11.7,9,15,9 M21.8,10.7 l-1.5,1.5C20.7,13,21,14,21,15c0,3.3-2.7,6-6,6v-3l-4,4l4,4v-3c4.4,0,8-3.6,8-8C23,13.4,22.5,12,21.8,10.7z"/>
  </svg>


  <svg id="DTH-doc" width="16" height="17" viewBox="0 0 16 17" x="0" y="450">
    <path class="blue" d="M2 15V0h12v15H2z M13 1H3v13h10V1z M9 4H5V3h4V4z M11 6H5 V5h6V6z M11 8H5V7h6V8z M11 10H5V9h6V10z M11 12H5v-1h6V12z"/>
  </svg>


  <svg id="DTH-doc-in" width="16" height="17" viewBox="0 0 16 17" x="0" y="480">
    <path class="blue" d="M8 15l1-1h6V1H5v7L4 7V0h12v15H8z M13 12H9l-1-1h5V12z M13 10H7V9h6V10z M13 8H7V7h6V8z M7 3h4v1H7V3z M13 6H7V5h6V6z M4 9l4 4l-4 4v-3H0v-2h4V9z"/>
  </svg>

  <svg id="DTH-doc-out" width="16" height="17" viewBox="0 0 16 17" x="0" y="510">
    <path class="blue" d="M16 13l-4 4v-3H8v-2h4V9L16 13z M11 1H1v13h6v1H0V0h12v8 h-1V1z M9 10H3V9h6V10z M9 8H3V7h6V8z M3 3h4v1H3V3z M9 6H3V5h6V6z M3 11h4v1H3V11z"/>
  </svg>


  <svg id="DTH-doc-gen" width="16" height="17" viewBox="0 0 16 17" x="0" y="540">
    <path class="blue" d="M14.8 14.3v1.5h-1.5L12 17l-1.3-1.3H9.3v-1.5L8 13 l1.3-1.3v-1.5h1.5L12 9l1.3 1.3h1.5v1.5L16 13L14.8 14.3z M13.8 12.3v-1h-1L12 10.5l-0.8 0.8h-1v1L9.5 13l0.8 0.8v1h1l0.8 0.8 l0.8-0.8h1v-1l0.8-0.8L13.8 12.3z M3 12v-1h4v1H3z M3 9h5v1H3V9z M9 8H3V7h6V8z M3 3h4v1H3V3z M9 6H3V5h6V6z M11 1H1v13h5.5l1 1H0V0 h12v7l-1 1V1z"/>
  </svg>


  <svg id="DTH-doc-publ" width="16" height="17" viewBox="0 0 16 17" x="0" y="570">
    <path class="blue" d="M2 15V0h12v15H2z M10 1H6v5.5L8 5l2 1.5V1z M13 1h-2v7.8 L8 6.5L5 8.8V1H3v13h10V1z"/>
  </svg>


  <svg id="DTH-proc-base" width="16" height="17" viewBox="0 0 16 17" x="0" y="600">
    <path class="blue" d="M14,10V2H6V0h10v10H14z M4,5h1v1H4V5z M7,5v1H6V5 H7z M8,13H3V8h5V13z M2,5h1v1H2V5z M0,15h1v1H0V15z M0,13h1v1H0V13z M0,11h1v1H0V11z M0,9h1v1H0V9z M0,7h1v1H0V7z M0,5h1v1H0V5z M3,16H2v-1h1V16z M5,16H4v-1h1V16z M7,16H6v-1h1V16z M8,5h1v1H8V5z M9,16H8v-1h1V16z M11,6h-1V5h1V6z M11,8h-1V7h1V8z M11,10h-1V9 h1V10z M11,12h-1v-1h1V12z M11,14h-1v-1h1V14z M11,16h-1v-1h1V16z"/>
  </svg>


  <svg id="DTH-proc-sub" width="16" height="17" viewBox="0 0 16 17" x="0" y="630">
    <path class="blue" d="M13,7V3H9V0h7v7H13z M15,1h-5v1h4v4h1V1z M11,12H9 V7H4V5h7V12z M2,9h1v1H2V9z M0,15h1v1H0V15z M0,13h1v1H0V13z M0,11h1v1H0V11z M0,9h1v1H0V9z M5,9v1H4V9H5z M5,14H2v-3h3V14z M3,16H2 v-1h1V16z M5,16H4v-1h1V16z M7,10H6V9h1V10z M7,12H6v-1h1V12z M7,14H6v-1h1V14z M7,16H6v-1h1V16z"/>
  </svg>


  <svg id="DTH-info" width="16" height="17" viewBox="0 0 16 17" x="0" y="660">
    <path class="blue" d="M10 15l-2 2l-2-2H1V0h14v15H10z M14 1H2v13h4.5L8 15.5 L9.5 14H14V1z M7 7h2v5H7V7z M7 3h2v2H7V3z"/>
  </svg>


  <svg id="DTH-alert" width="16" height="17" viewBox="0 0 16 17" x="0" y="690">
    <path class="blue" d="M12 14H4L0 7l4-7h8l4 7L12 14z M11.3 1H4.8L1.3 7l3.5 6 h6.5l3.5-6L11.3 1z M7 9h2v2H7V9z M7 3h2v5H7V3z"/>
  </svg>


  <svg id="DTH-DocIn_Inverse" width="16" height="17" viewBox="0 0 16 17" x="0" y="720">
    <path class="blue" d="M8,15l2-2L4,7V0h12v15H8z M4,9l4,4l-4,4v-3H0v-2h4V9z"/>
    <path class="white" d="M10,13l-1-1h5v1H10z M7,10h7v1H8L7,10z M6,8h8v1H6V8z M6,6h8v1H6 V6z M6,4h8v1H6V4z M6,2h6v1H6V2z"/>
  </svg>

</svg>